<svg width="324" height="56" viewBox="0 0 324 56" fill="none" xmlns="http://www.w3.org/2000/svg">
<g clip-path="url(#clip0_12_9)" filter="url(#filter0_d_12_9)">
<path fill-rule="evenodd" clip-rule="evenodd" d="M11.2002 19C10.0156 19 8.87951 19.4372 8.04187 20.2155L4 23.971V25.69C4 26.9045 4.56146 27.9972 5.45636 28.7561C4.56146 29.515 4 30.6077 4 31.8221V33.5412L8.04187 37.2967C8.87951 38.075 10.0156 38.5122 11.2002 38.5122C12.5073 38.5122 13.6832 37.9905 14.5 37.159C15.3168 37.9905 16.4927 38.5122 17.7998 38.5122C18.9844 38.5122 20.1205 38.075 20.9581 37.2967L25 33.5412V31.8221C25 30.6077 24.4386 29.515 23.5436 28.7561C24.4386 27.9972 25 26.9045 25 25.69V23.971L20.9581 20.2155C20.1205 19.4372 18.9844 19 17.7998 19C16.4927 19 15.3168 19.5217 14.5 20.3532C13.6832 19.5217 12.5073 19 11.2002 19ZM17.5234 28.7561C17.473 28.7134 17.4236 28.6696 17.3752 28.6246L14.5 25.9531L11.6248 28.6246C11.5764 28.6696 11.527 28.7134 11.4766 28.7561C11.527 28.7988 11.5764 28.8426 11.6248 28.8876L14.5 31.5591L17.3752 28.8876C17.4236 28.8426 17.473 28.7988 17.5234 28.7561ZM15.6667 33.5412V34.3621C15.6667 35.4568 16.6217 36.3442 17.7998 36.3442C18.3656 36.3442 18.9082 36.1354 19.3082 35.7637L22.6667 32.6431V31.8221C22.6667 30.7275 21.7116 29.8401 20.5335 29.8401C19.9678 29.8401 19.4252 30.0489 19.0251 30.4206L15.6667 33.5412ZM13.3333 33.5412L9.97487 30.4206C9.57482 30.0489 9.03225 29.8401 8.4665 29.8401C7.28838 29.8401 6.33333 30.7275 6.33333 31.8221V32.6431L9.69179 35.7637C10.0918 36.1354 10.6344 36.3442 11.2002 36.3442C12.3783 36.3442 13.3333 35.4568 13.3333 34.3621V33.5412ZM13.3333 23.1501V23.971L9.97487 27.0916C9.57482 27.4633 9.03225 27.6721 8.4665 27.6721C7.28838 27.6721 6.33333 26.7847 6.33333 25.69V24.8691L9.69179 21.7485C10.0918 21.3768 10.6344 21.168 11.2002 21.168C12.3783 21.168 13.3333 22.0554 13.3333 23.1501ZM19.0251 27.0916L15.6667 23.971V23.1501C15.6667 22.0554 16.6217 21.168 17.7998 21.168C18.3656 21.168 18.9082 21.3768 19.3082 21.7485L22.6667 24.8691V25.69C22.6667 26.7847 21.7116 27.6721 20.5335 27.6721C19.9678 27.6721 19.4252 27.4633 19.0251 27.0916Z" fill="#FF630B"/>
</g>
<g filter="url(#filter1_d_12_9)">
<path d="M26.0856 36V19.2H30.6936C32.5336 19.2 34.0456 19.552 35.2296 20.256C36.4296 20.96 37.3176 21.944 37.8936 23.208C38.4856 24.456 38.7816 25.928 38.7816 27.624C38.7816 29.288 38.4856 30.752 37.8936 32.016C37.3176 33.264 36.4296 34.24 35.2296 34.944C34.0456 35.648 32.5336 36 30.6936 36H26.0856ZM28.1496 34.08H30.7656C32.0616 34.08 33.1336 33.808 33.9816 33.264C34.8456 32.704 35.4936 31.936 35.9256 30.96C36.3576 29.984 36.5736 28.864 36.5736 27.6C36.5736 26.336 36.3576 25.224 35.9256 24.264C35.4936 23.288 34.8456 22.52 33.9816 21.96C33.1336 21.4 32.0616 21.12 30.7656 21.12H28.1496V34.08ZM42.1843 36V24H44.2003V26.376C44.3603 25.944 44.5843 25.528 44.8723 25.128C45.1763 24.712 45.5843 24.376 46.0963 24.12C46.6243 23.848 47.2963 23.712 48.1123 23.712C48.2403 23.712 48.4163 23.728 48.6403 23.76C48.8643 23.776 49.0323 23.792 49.1443 23.808V25.68C48.9043 25.6 48.6003 25.544 48.2323 25.512C47.8643 25.464 47.5283 25.472 47.2243 25.536C46.2483 25.728 45.4963 26.152 44.9683 26.808C44.4563 27.464 44.2003 28.368 44.2003 29.52V36H42.1843ZM56.6166 36.312C55.6086 36.312 54.6726 36.064 53.8086 35.568C52.9446 35.056 52.2486 34.328 51.7206 33.384C51.1926 32.44 50.9286 31.328 50.9286 30.048C50.9286 28.736 51.1926 27.608 51.7206 26.664C52.2486 25.72 52.9446 24.992 53.8086 24.48C54.6726 23.968 55.6086 23.712 56.6166 23.712C57.6406 23.712 58.5606 23.928 59.3766 24.36C60.2086 24.776 60.8646 25.432 61.3446 26.328C61.8406 27.208 62.0886 28.344 62.0886 29.736V30.48H52.9206C52.9846 31.632 53.3206 32.592 53.9286 33.36C54.5366 34.112 55.4166 34.488 56.5686 34.488C57.2886 34.488 57.9446 34.32 58.5366 33.984C59.1286 33.648 59.5926 33.176 59.9286 32.568L61.7046 33.288C60.7126 35.304 59.0166 36.312 56.6166 36.312ZM56.5686 25.536C55.5926 25.536 54.8086 25.84 54.2166 26.448C53.6406 27.04 53.2566 27.792 53.0646 28.704H60.0726C60.0726 28.256 59.9366 27.792 59.6646 27.312C59.4086 26.816 59.0246 26.4 58.5126 26.064C58.0006 25.712 57.3526 25.536 56.5686 25.536ZM69.8966 36.288C68.8566 36.288 67.9366 36.04 67.1366 35.544C66.3366 35.032 65.7126 34.312 65.2646 33.384C64.8166 32.44 64.5926 31.312 64.5926 30C64.5926 28.64 64.8246 27.496 65.2886 26.568C65.7526 25.64 66.3926 24.936 67.2086 24.456C68.0406 23.96 68.9766 23.712 70.0166 23.712C70.7206 23.712 71.3286 23.84 71.8406 24.096C72.3526 24.352 72.7766 24.68 73.1126 25.08C73.4646 25.48 73.7206 25.904 73.8806 26.352V24H75.8006V36H73.8086V33.696C73.6486 34.24 73.3606 34.712 72.9446 35.112C72.5446 35.496 72.0726 35.792 71.5286 36C71.0006 36.192 70.4566 36.288 69.8966 36.288ZM70.1846 34.464C70.9526 34.464 71.6006 34.264 72.1286 33.864C72.6726 33.448 73.0806 32.904 73.3526 32.232C73.6406 31.56 73.7846 30.816 73.7846 30C73.7846 28.672 73.4646 27.592 72.8246 26.76C72.2006 25.928 71.2966 25.512 70.1126 25.512C69.3286 25.512 68.6726 25.712 68.1446 26.112C67.6326 26.496 67.2486 27.024 66.9926 27.696C66.7366 28.368 66.6086 29.12 66.6086 29.952C66.6086 30.784 66.7366 31.544 66.9926 32.232C67.2486 32.904 67.6406 33.448 68.1686 33.864C68.7126 34.264 69.3846 34.464 70.1846 34.464ZM80.0828 36V24H82.0988V26.256C82.1788 25.968 82.3628 25.624 82.6508 25.224C82.9388 24.824 83.3628 24.472 83.9228 24.168C84.4828 23.864 85.2108 23.712 86.1068 23.712C87.0188 23.712 87.8108 23.952 88.4828 24.432C89.1708 24.896 89.6508 25.584 89.9228 26.496V26.448C90.0028 26.16 90.2028 25.8 90.5228 25.368C90.8428 24.936 91.2988 24.552 91.8908 24.216C92.4988 23.88 93.2508 23.712 94.1468 23.712C95.3148 23.712 96.2748 24.088 97.0268 24.84C97.7948 25.592 98.1788 26.688 98.1788 28.128V36H96.1628V28.416C96.1628 27.376 95.9148 26.64 95.4188 26.208C94.9228 25.76 94.2748 25.536 93.4748 25.536C92.3708 25.536 91.5388 25.912 90.9788 26.664C90.4188 27.416 90.1388 28.368 90.1388 29.52V36H88.1228V28.416C88.1228 27.376 87.8748 26.64 87.3788 26.208C86.8828 25.76 86.2348 25.536 85.4348 25.536C84.3308 25.536 83.4988 25.912 82.9388 26.664C82.3788 27.416 82.0988 28.368 82.0988 29.52V36H80.0828ZM102.561 36V19.2H104.673V26.304H112.689V19.2H114.801V36H112.689V28.224H104.673V36H102.561ZM124.046 36.288C123.054 36.288 122.126 36.056 121.262 35.592C120.398 35.112 119.702 34.408 119.174 33.48C118.646 32.536 118.382 31.376 118.382 30C118.382 28.624 118.646 27.472 119.174 26.544C119.702 25.6 120.398 24.896 121.262 24.432C122.126 23.952 123.054 23.712 124.046 23.712C125.038 23.712 125.966 23.952 126.83 24.432C127.694 24.896 128.39 25.6 128.918 26.544C129.446 27.472 129.71 28.624 129.71 30C129.71 31.376 129.446 32.536 128.918 33.48C128.39 34.408 127.694 35.112 126.83 35.592C125.966 36.056 125.038 36.288 124.046 36.288ZM124.046 34.464C125.246 34.464 126.15 34.072 126.758 33.288C127.382 32.504 127.694 31.408 127.694 30C127.694 28.592 127.382 27.496 126.758 26.712C126.15 25.928 125.246 25.536 124.046 25.536C122.846 25.536 121.934 25.928 121.31 26.712C120.702 27.496 120.398 28.592 120.398 30C120.398 31.408 120.702 32.504 121.31 33.288C121.934 34.072 122.846 34.464 124.046 34.464ZM137.104 36.288C135.936 36.288 134.968 35.912 134.2 35.16C133.448 34.408 133.072 33.312 133.072 31.872V24H135.088V31.584C135.088 32.624 135.336 33.368 135.832 33.816C136.328 34.248 136.976 34.464 137.776 34.464C138.88 34.464 139.712 34.088 140.272 33.336C140.832 32.584 141.112 31.632 141.112 30.48V24H143.128V36H141.112V33.744C141.048 34.016 140.864 34.36 140.56 34.776C140.272 35.176 139.848 35.528 139.288 35.832C138.728 36.136 138 36.288 137.104 36.288ZM151.232 36.288C150.432 36.288 149.672 36.12 148.952 35.784C148.232 35.432 147.648 34.952 147.2 34.344C146.752 33.736 146.528 33.04 146.528 32.256H148.688C148.688 32.752 148.832 33.168 149.12 33.504C149.408 33.824 149.76 34.064 150.176 34.224C150.592 34.384 151 34.464 151.4 34.464C152.2 34.464 152.84 34.32 153.32 34.032C153.8 33.744 154.04 33.304 154.04 32.712C154.04 32.184 153.864 31.792 153.512 31.536C153.16 31.264 152.712 31.064 152.168 30.936C151.624 30.792 151.04 30.664 150.416 30.552C149.792 30.44 149.208 30.28 148.664 30.072C148.12 29.864 147.672 29.544 147.32 29.112C146.968 28.68 146.792 28.08 146.792 27.312C146.792 26.72 146.952 26.152 147.272 25.608C147.592 25.064 148.072 24.616 148.712 24.264C149.368 23.896 150.184 23.712 151.16 23.712C152.328 23.712 153.248 23.904 153.92 24.288C154.608 24.656 155.096 25.112 155.384 25.656C155.688 26.184 155.84 26.696 155.84 27.192H153.776C153.776 26.792 153.552 26.416 153.104 26.064C152.656 25.712 152 25.536 151.136 25.536C150.352 25.536 149.768 25.696 149.384 26.016C149 26.32 148.808 26.728 148.808 27.24C148.808 27.688 148.984 28.032 149.336 28.272C149.688 28.512 150.136 28.704 150.68 28.848C151.24 28.976 151.824 29.112 152.432 29.256C153.056 29.384 153.64 29.576 154.184 29.832C154.744 30.072 155.2 30.424 155.552 30.888C155.904 31.336 156.08 31.944 156.08 32.712C156.08 33.352 155.904 33.944 155.552 34.488C155.216 35.032 154.688 35.472 153.968 35.808C153.264 36.128 152.352 36.288 151.232 36.288ZM164.382 36.312C163.374 36.312 162.438 36.064 161.574 35.568C160.71 35.056 160.014 34.328 159.486 33.384C158.958 32.44 158.694 31.328 158.694 30.048C158.694 28.736 158.958 27.608 159.486 26.664C160.014 25.72 160.71 24.992 161.574 24.48C162.438 23.968 163.374 23.712 164.382 23.712C165.406 23.712 166.326 23.928 167.142 24.36C167.974 24.776 168.63 25.432 169.11 26.328C169.606 27.208 169.854 28.344 169.854 29.736V30.48H160.686C160.75 31.632 161.086 32.592 161.694 33.36C162.302 34.112 163.182 34.488 164.334 34.488C165.054 34.488 165.71 34.32 166.302 33.984C166.894 33.648 167.358 33.176 167.694 32.568L169.47 33.288C168.478 35.304 166.782 36.312 164.382 36.312ZM164.334 25.536C163.358 25.536 162.574 25.84 161.982 26.448C161.406 27.04 161.022 27.792 160.83 28.704H167.838C167.838 28.256 167.702 27.792 167.43 27.312C167.174 26.816 166.79 26.4 166.278 26.064C165.766 25.712 165.118 25.536 164.334 25.536Z" fill="#360303"/>
</g>
<defs>
<filter id="filter0_d_12_9" x="0" y="19" width="29" height="28" filterUnits="userSpaceOnUse" color-interpolation-filters="sRGB">
<feFlood flood-opacity="0" result="BackgroundImageFix"/>
<feColorMatrix in="SourceAlpha" type="matrix" values="0 0 0 0 0 0 0 0 0 0 0 0 0 0 0 0 0 0 127 0" result="hardAlpha"/>
<feOffset dy="4"/>
<feGaussianBlur stdDeviation="2"/>
<feComposite in2="hardAlpha" operator="out"/>
<feColorMatrix type="matrix" values="0 0 0 0 0 0 0 0 0 0 0 0 0 0 0 0 0 0 0.25 0"/>
<feBlend mode="normal" in2="BackgroundImageFix" result="effect1_dropShadow_12_9"/>
<feBlend mode="normal" in="SourceGraphic" in2="effect1_dropShadow_12_9" result="shape"/>
</filter>
<filter id="filter1_d_12_9" x="22.0856" y="19.2" width="151.769" height="25.112" filterUnits="userSpaceOnUse" color-interpolation-filters="sRGB">
<feFlood flood-opacity="0" result="BackgroundImageFix"/>
<feColorMatrix in="SourceAlpha" type="matrix" values="0 0 0 0 0 0 0 0 0 0 0 0 0 0 0 0 0 0 127 0" result="hardAlpha"/>
<feOffset dy="4"/>
<feGaussianBlur stdDeviation="2"/>
<feComposite in2="hardAlpha" operator="out"/>
<feColorMatrix type="matrix" values="0 0 0 0 0 0 0 0 0 0 0 0 0 0 0 0 0 0 0.25 0"/>
<feBlend mode="normal" in2="BackgroundImageFix" result="effect1_dropShadow_12_9"/>
<feBlend mode="normal" in="SourceGraphic" in2="effect1_dropShadow_12_9" result="shape"/>
</filter>
<clipPath id="clip0_12_9">
<rect width="21" height="20" fill="white" transform="translate(4 19)"/>
</clipPath>
</defs>
</svg>
